# xmcd CD database file
#
# Track frame offsets:
#	150
#	20230
#	30706
#	47162
#	62289
#	88286
#	101488
#	125851
#	155008
#	171583
#	187490
#	200992
#	216392
#	233741
#	257216
#	272571
#
# Disc length: 3793 seconds
#
# Revision: 7
# Processed by: cddbd v1.5.2PL0 Copyright (c) Steve Scherf et al.
# Submitted via: CDex 1.51
#
DISCID=030ecf10
DTITLE=Oscar Peterson - Blue and Sentimental  [CD 2-3]
DYEAR=2007
DGENRE=Jazz
TTITLE0=Brodway
TTITLE1=I'am forever blowing bubbles
TTITLE2=Night and day
TTITLE3=Sweet Georgia Brown
TTITLE4=One o'clock jump
TTITLE5=Fascinatin' rhythm
TTITLE6=Cheek to cheek
TTITLE7=9;20 Special
TTITLE8=Incoherent blues
TTITLE9=The man I love
TTITLE10=Jim
TTITLE11=Squeaky's blues
TTITLE12=Lester leaps in
TTITLE13=Mack the knife
TTITLE14=Blues for Basie
TTITLE15=I was doin' all right
EXTD=YEAR: 2007
EXTT0=
EXTT1=
EXTT2=
EXTT3=
EXTT4=
EXTT5=
EXTT6=
EXTT7=
EXTT8=
EXTT9=
EXTT10=
EXTT11=
EXTT12=
EXTT13=
EXTT14=
EXTT15=
PLAYORDER=
